<svg xmlns="http://www.w3.org/2000/svg" xmlns:xlink="http://www.w3.org/1999/xlink" width="477" zoomAndPan="magnify" viewBox="0 0 357.75 83.249999" height="111" preserveAspectRatio="xMidYMid meet" version="1.0"><defs><g/><clipPath id="b2150d826d"><path d="M 171 26 L 206 26 L 206 81.761719 L 171 81.761719 Z M 171 26 " clip-rule="nonzero"/></clipPath><clipPath id="8f963831f4"><path d="M 133.945312 26 L 169 26 L 169 81.761719 L 133.945312 81.761719 Z M 133.945312 26 " clip-rule="nonzero"/></clipPath></defs><g clip-path="url(#b2150d826d)"><path fill="#3b4049" d="M 202.851562 26.335938 C 201.164062 26.335938 199.796875 27.703125 199.796875 29.394531 L 199.796875 60.53125 L 177.664062 73.042969 L 177.664062 60.625 L 182.320312 57.980469 C 183.210938 58.496094 184.242188 58.789062 185.34375 58.789062 C 188.691406 58.789062 191.398438 56.082031 191.398438 52.734375 C 191.398438 49.390625 188.691406 46.679688 185.34375 46.679688 C 182.019531 46.679688 179.320312 49.359375 179.289062 52.675781 L 173.101562 56.1875 C 172.144531 56.734375 171.554688 57.746094 171.554688 58.847656 L 171.554688 78.28125 C 171.554688 79.367188 172.132812 80.375 173.070312 80.917969 C 173.546875 81.195312 174.078125 81.335938 174.609375 81.335938 C 175.128906 81.335938 175.644531 81.207031 176.113281 80.941406 L 204.355469 64.972656 C 205.316406 64.433594 205.90625 63.417969 205.90625 62.316406 L 205.90625 29.394531 C 205.90625 27.703125 204.539062 26.335938 202.851562 26.335938 " fill-opacity="1" fill-rule="nonzero"/></g><g clip-path="url(#8f963831f4)"><path fill="#1877f2" d="M 168.085938 80.054688 C 168.921875 78.589844 168.410156 76.722656 166.945312 75.886719 L 140.0625 60.710938 L 140.15625 34.839844 L 151.605469 41.4375 L 151.597656 47.839844 C 150.707031 48.359375 149.941406 49.109375 149.394531 50.066406 C 147.738281 52.972656 148.75 56.671875 151.65625 58.328125 C 154.5625 59.980469 158.261719 58.96875 159.917969 56.066406 C 161.5625 53.175781 160.574219 49.503906 157.707031 47.835938 L 157.722656 39.671875 C 157.722656 38.570312 157.132812 37.554688 156.179688 37.011719 L 138.636719 26.9375 C 137.691406 26.402344 136.53125 26.40625 135.59375 26.949219 C 135.117188 27.222656 134.730469 27.617188 134.46875 28.082031 C 134.210938 28.53125 133.949219 29.046875 133.945312 29.582031 L 133.945312 62.46875 C 133.941406 63.570312 134.53125 64.59375 135.488281 65.136719 L 163.917969 81.195312 C 165.382812 82.03125 167.246094 81.523438 168.085938 80.054688 " fill-opacity="1" fill-rule="nonzero"/></g><path fill="#d9d9d9" d="M 201.503906 17.710938 L 171.597656 0.628906 C 170.65625 0.09375 169.503906 0.09375 168.566406 0.628906 L 138.578125 17.734375 C 137.109375 18.574219 136.597656 20.4375 137.4375 21.90625 C 138.273438 23.371094 140.136719 23.878906 141.605469 23.042969 L 170.078125 6.800781 L 193.796875 20.34375 L 172.996094 32.070312 C 172.113281 31.574219 171.097656 31.289062 170.011719 31.289062 C 166.636719 31.289062 163.902344 34.027344 163.902344 37.402344 C 163.902344 40.777344 166.636719 43.511719 170.011719 43.511719 C 173.386719 43.511719 176.121094 40.777344 176.121094 37.402344 L 176.121094 37.324219 L 201.488281 23.023438 C 202.449219 22.484375 203.039062 21.472656 203.046875 20.371094 C 203.050781 19.273438 202.457031 18.253906 201.503906 17.710938 " fill-opacity="1" fill-rule="nonzero"/><g fill="#3b4049" fill-opacity="1"><g transform="translate(15.378117, 52.290794)"><g><path d="M 10.359375 -13.96875 L 10.359375 -4.71875 C 10.359375 -3.144531 9.929688 -1.941406 9.078125 -1.109375 C 8.234375 -0.273438 7.0625 0.140625 5.5625 0.140625 C 3.976562 0.140625 2.710938 -0.300781 1.765625 -1.1875 C 0.828125 -2.070312 0.359375 -3.347656 0.359375 -5.015625 L 4.203125 -5.015625 C 4.210938 -3.921875 4.613281 -3.375 5.40625 -3.375 C 6.125 -3.375 6.484375 -3.820312 6.484375 -4.71875 L 6.484375 -13.96875 Z M 10.359375 -13.96875 "/></g></g></g><g fill="#3b4049" fill-opacity="1"><g transform="translate(26.949272, 52.290794)"><g><path d="M 7.8125 0.140625 C 6.5 0.140625 5.296875 -0.164062 4.203125 -0.78125 C 3.109375 -1.394531 2.238281 -2.242188 1.59375 -3.328125 C 0.957031 -4.421875 0.640625 -5.65625 0.640625 -7.03125 C 0.640625 -8.40625 0.957031 -9.632812 1.59375 -10.71875 C 2.238281 -11.8125 3.109375 -12.660156 4.203125 -13.265625 C 5.296875 -13.878906 6.5 -14.1875 7.8125 -14.1875 C 9.125 -14.1875 10.328125 -13.878906 11.421875 -13.265625 C 12.515625 -12.660156 13.375 -11.8125 14 -10.71875 C 14.632812 -9.632812 14.953125 -8.40625 14.953125 -7.03125 C 14.953125 -5.65625 14.632812 -4.421875 14 -3.328125 C 13.375 -2.242188 12.507812 -1.394531 11.40625 -0.78125 C 10.3125 -0.164062 9.113281 0.140625 7.8125 0.140625 Z M 7.8125 -3.46875 C 8.800781 -3.46875 9.582031 -3.789062 10.15625 -4.4375 C 10.726562 -5.082031 11.015625 -5.945312 11.015625 -7.03125 C 11.015625 -8.144531 10.726562 -9.019531 10.15625 -9.65625 C 9.582031 -10.300781 8.800781 -10.625 7.8125 -10.625 C 6.800781 -10.625 6.007812 -10.300781 5.4375 -9.65625 C 4.875 -9.019531 4.59375 -8.144531 4.59375 -7.03125 C 4.59375 -5.9375 4.875 -5.066406 5.4375 -4.421875 C 6.007812 -3.785156 6.800781 -3.46875 7.8125 -3.46875 Z M 7.8125 -3.46875 "/></g></g></g><g fill="#3b4049" fill-opacity="1"><g transform="translate(42.542586, 52.290794)"><g><path d="M 8.1875 0 L 5.40625 -5.15625 L 5 -5.15625 L 5 0 L 1.109375 0 L 1.109375 -13.96875 L 7.234375 -13.96875 C 8.359375 -13.96875 9.304688 -13.769531 10.078125 -13.375 C 10.859375 -12.988281 11.445312 -12.457031 11.84375 -11.78125 C 12.238281 -11.101562 12.4375 -10.335938 12.4375 -9.484375 C 12.4375 -8.535156 12.175781 -7.703125 11.65625 -6.984375 C 11.132812 -6.265625 10.375 -5.753906 9.375 -5.453125 L 12.515625 0 Z M 5 -7.8125 L 6.921875 -7.8125 C 7.441406 -7.8125 7.832031 -7.9375 8.09375 -8.1875 C 8.363281 -8.4375 8.5 -8.796875 8.5 -9.265625 C 8.5 -9.722656 8.363281 -10.078125 8.09375 -10.328125 C 7.820312 -10.585938 7.429688 -10.71875 6.921875 -10.71875 L 5 -10.71875 Z M 5 -7.8125 "/></g></g></g><g fill="#3b4049" fill-opacity="1"><g transform="translate(55.639386, 52.290794)"><g><path d="M 6.640625 -13.96875 C 8.109375 -13.96875 9.390625 -13.671875 10.484375 -13.078125 C 11.585938 -12.492188 12.4375 -11.671875 13.03125 -10.609375 C 13.625 -9.554688 13.921875 -8.351562 13.921875 -7 C 13.921875 -5.644531 13.617188 -4.4375 13.015625 -3.375 C 12.421875 -2.320312 11.570312 -1.492188 10.46875 -0.890625 C 9.363281 -0.296875 8.085938 0 6.640625 0 L 1.109375 0 L 1.109375 -13.96875 Z M 6.34375 -3.421875 C 7.476562 -3.421875 8.367188 -3.734375 9.015625 -4.359375 C 9.660156 -4.984375 9.984375 -5.863281 9.984375 -7 C 9.984375 -8.144531 9.660156 -9.03125 9.015625 -9.65625 C 8.367188 -10.28125 7.476562 -10.59375 6.34375 -10.59375 L 5 -10.59375 L 5 -3.421875 Z M 6.34375 -3.421875 "/></g></g></g><g fill="#3b4049" fill-opacity="1"><g transform="translate(70.202389, 52.290794)"><g><path d="M 13.8125 -13.96875 L 8.890625 -4.4375 L 8.890625 0 L 5 0 L 5 -4.4375 L 0.078125 -13.96875 L 4.515625 -13.96875 L 6.96875 -8.578125 L 9.4375 -13.96875 Z M 13.8125 -13.96875 "/></g></g></g><g fill="#3b4049" fill-opacity="1"><g transform="translate(84.091729, 52.290794)"><g><path d="M 6.640625 -13.96875 C 8.109375 -13.96875 9.390625 -13.671875 10.484375 -13.078125 C 11.585938 -12.492188 12.4375 -11.671875 13.03125 -10.609375 C 13.625 -9.554688 13.921875 -8.351562 13.921875 -7 C 13.921875 -5.644531 13.617188 -4.4375 13.015625 -3.375 C 12.421875 -2.320312 11.570312 -1.492188 10.46875 -0.890625 C 9.363281 -0.296875 8.085938 0 6.640625 0 L 1.109375 0 L 1.109375 -13.96875 Z M 6.34375 -3.421875 C 7.476562 -3.421875 8.367188 -3.734375 9.015625 -4.359375 C 9.660156 -4.984375 9.984375 -5.863281 9.984375 -7 C 9.984375 -8.144531 9.660156 -9.03125 9.015625 -9.65625 C 8.367188 -10.28125 7.476562 -10.59375 6.34375 -10.59375 L 5 -10.59375 L 5 -3.421875 Z M 6.34375 -3.421875 "/></g></g></g><g fill="#3b4049" fill-opacity="1"><g transform="translate(98.654732, 52.290794)"><g><path d="M 5 -10.859375 L 5 -8.578125 L 9.453125 -8.578125 L 9.453125 -5.625 L 5 -5.625 L 5 -3.109375 L 10.046875 -3.109375 L 10.046875 0 L 1.109375 0 L 1.109375 -13.96875 L 10.046875 -13.96875 L 10.046875 -10.859375 Z M 5 -10.859375 "/></g></g></g><g fill="#3b4049" fill-opacity="1"><g transform="translate(109.512594, 52.290794)"><g><path d="M 14.703125 -13.96875 L 9.890625 0 L 4.90625 0 L 0.078125 -13.96875 L 4.234375 -13.96875 L 7.40625 -3.890625 L 10.5625 -13.96875 Z M 14.703125 -13.96875 "/></g></g></g><g fill="#1877f2" fill-opacity="1"><g transform="translate(217.309893, 53.034098)"><g><path d="M 1.75 0 L 1.75 -14.40625 L 10.390625 -14.40625 L 10.390625 -12.859375 L 3.484375 -12.859375 L 3.484375 -8 L 9.734375 -8 L 9.734375 -6.4375 L 3.484375 -6.4375 L 3.484375 0 Z M 1.75 0 "/></g></g></g><g fill="#1877f2" fill-opacity="1"><g transform="translate(228.93347, 53.034098)"><g><path d="M 1.75 0 L 1.75 -14.40625 L 6.609375 -14.40625 C 7.734375 -14.40625 8.65625 -14.210938 9.375 -13.828125 C 10.101562 -13.453125 10.640625 -12.929688 10.984375 -12.265625 C 11.335938 -11.597656 11.515625 -10.835938 11.515625 -9.984375 C 11.515625 -9.035156 11.289062 -8.203125 10.84375 -7.484375 C 10.40625 -6.773438 9.726562 -6.265625 8.8125 -5.953125 L 12.078125 0 L 10.046875 0 L 7 -5.640625 C 6.882812 -5.628906 6.765625 -5.625 6.640625 -5.625 L 3.484375 -5.625 L 3.484375 0 Z M 3.484375 -7.203125 L 6.578125 -7.203125 C 7.734375 -7.203125 8.554688 -7.453125 9.046875 -7.953125 C 9.546875 -8.453125 9.796875 -9.128906 9.796875 -9.984375 C 9.796875 -10.859375 9.546875 -11.554688 9.046875 -12.078125 C 8.554688 -12.597656 7.726562 -12.859375 6.5625 -12.859375 L 3.484375 -12.859375 Z M 3.484375 -7.203125 "/></g></g></g><g fill="#1877f2" fill-opacity="1"><g transform="translate(241.598381, 53.034098)"><g><path d="M 1.75 0 L 1.75 -14.40625 L 10.4375 -14.40625 L 10.4375 -12.859375 L 3.484375 -12.859375 L 3.484375 -8 L 9.984375 -8 L 9.984375 -6.4375 L 3.484375 -6.4375 L 3.484375 -1.546875 L 10.546875 -1.546875 L 10.546875 0 Z M 1.75 0 "/></g></g></g><g fill="#1877f2" fill-opacity="1"><g transform="translate(253.447106, 53.034098)"><g><path d="M 1.75 0 L 1.75 -14.40625 L 10.4375 -14.40625 L 10.4375 -12.859375 L 3.484375 -12.859375 L 3.484375 -8 L 9.984375 -8 L 9.984375 -6.4375 L 3.484375 -6.4375 L 3.484375 -1.546875 L 10.546875 -1.546875 L 10.546875 0 Z M 1.75 0 "/></g></g></g><g fill="#1877f2" fill-opacity="1"><g transform="translate(265.295831, 53.034098)"><g><path d="M 1.75 0 L 1.75 -14.40625 L 3.484375 -14.40625 L 3.484375 -1.546875 L 10.1875 -1.546875 L 10.1875 0 Z M 1.75 0 "/></g></g></g><g fill="#1877f2" fill-opacity="1"><g transform="translate(276.44095, 53.034098)"><g><path d="M 2.328125 0 L 0.5 0 L 5.796875 -14.40625 L 7.59375 -14.40625 L 12.890625 0 L 11.0625 0 L 9.609375 -4.078125 L 3.78125 -4.078125 Z M 4.328125 -5.625 L 9.0625 -5.625 L 6.75 -12.125 L 6.640625 -12.125 Z M 4.328125 -5.625 "/></g></g></g><g fill="#1877f2" fill-opacity="1"><g transform="translate(289.837607, 53.034098)"><g><path d="M 13.171875 -14.40625 L 13.171875 0 L 11.484375 0 L 3.625 -11.3125 L 3.484375 -11.3125 L 3.484375 0 L 1.75 0 L 1.75 -14.40625 L 3.4375 -14.40625 L 11.3125 -3.0625 L 11.453125 -3.0625 L 11.453125 -14.40625 Z M 13.171875 -14.40625 "/></g></g></g><g fill="#1877f2" fill-opacity="1"><g transform="translate(304.754059, 53.034098)"><g><path d="M 13.34375 -9.90625 L 11.59375 -9.90625 C 11.457031 -10.570312 11.1875 -11.128906 10.78125 -11.578125 C 10.382812 -12.035156 9.90625 -12.378906 9.34375 -12.609375 C 8.78125 -12.847656 8.179688 -12.96875 7.546875 -12.96875 C 6.671875 -12.96875 5.878906 -12.75 5.171875 -12.3125 C 4.460938 -11.875 3.898438 -11.222656 3.484375 -10.359375 C 3.078125 -9.503906 2.875 -8.453125 2.875 -7.203125 C 2.875 -5.953125 3.078125 -4.898438 3.484375 -4.046875 C 3.898438 -3.191406 4.460938 -2.539062 5.171875 -2.09375 C 5.878906 -1.65625 6.671875 -1.4375 7.546875 -1.4375 C 8.179688 -1.4375 8.78125 -1.550781 9.34375 -1.78125 C 9.90625 -2.019531 10.382812 -2.363281 10.78125 -2.8125 C 11.1875 -3.269531 11.457031 -3.832031 11.59375 -4.5 L 13.34375 -4.5 C 13.164062 -3.519531 12.800781 -2.675781 12.25 -1.96875 C 11.695312 -1.269531 11.015625 -0.734375 10.203125 -0.359375 C 9.390625 0.015625 8.503906 0.203125 7.546875 0.203125 C 6.316406 0.203125 5.222656 -0.0976562 4.265625 -0.703125 C 3.304688 -1.304688 2.550781 -2.160156 2 -3.265625 C 1.457031 -4.367188 1.1875 -5.679688 1.1875 -7.203125 C 1.1875 -8.722656 1.457031 -10.035156 2 -11.140625 C 2.550781 -12.253906 3.304688 -13.109375 4.265625 -13.703125 C 5.222656 -14.304688 6.316406 -14.609375 7.546875 -14.609375 C 8.503906 -14.609375 9.390625 -14.421875 10.203125 -14.046875 C 11.015625 -13.671875 11.695312 -13.132812 12.25 -12.4375 C 12.800781 -11.738281 13.164062 -10.894531 13.34375 -9.90625 Z M 13.34375 -9.90625 "/></g></g></g><g fill="#1877f2" fill-opacity="1"><g transform="translate(319.163912, 53.034098)"><g><path d="M 1.75 0 L 1.75 -14.40625 L 10.4375 -14.40625 L 10.4375 -12.859375 L 3.484375 -12.859375 L 3.484375 -8 L 9.984375 -8 L 9.984375 -6.4375 L 3.484375 -6.4375 L 3.484375 -1.546875 L 10.546875 -1.546875 L 10.546875 0 Z M 1.75 0 "/></g></g></g><g fill="#1877f2" fill-opacity="1"><g transform="translate(331.012637, 53.034098)"><g><path d="M 1.75 0 L 1.75 -14.40625 L 6.609375 -14.40625 C 7.734375 -14.40625 8.65625 -14.210938 9.375 -13.828125 C 10.101562 -13.453125 10.640625 -12.929688 10.984375 -12.265625 C 11.335938 -11.597656 11.515625 -10.835938 11.515625 -9.984375 C 11.515625 -9.035156 11.289062 -8.203125 10.84375 -7.484375 C 10.40625 -6.773438 9.726562 -6.265625 8.8125 -5.953125 L 12.078125 0 L 10.046875 0 L 7 -5.640625 C 6.882812 -5.628906 6.765625 -5.625 6.640625 -5.625 L 3.484375 -5.625 L 3.484375 0 Z M 3.484375 -7.203125 L 6.578125 -7.203125 C 7.734375 -7.203125 8.554688 -7.453125 9.046875 -7.953125 C 9.546875 -8.453125 9.796875 -9.128906 9.796875 -9.984375 C 9.796875 -10.859375 9.546875 -11.554688 9.046875 -12.078125 C 8.554688 -12.597656 7.726562 -12.859375 6.5625 -12.859375 L 3.484375 -12.859375 Z M 3.484375 -7.203125 "/></g></g></g></svg>